<svg xmlns="http://www.w3.org/2000/svg" id="SvgjsSvg827192" width="4096" height="1819.1731071964343" version="1.1" xmlns:xlink="http://www.w3.org/1999/xlink" xmlns:svgjs="http://svgjs.com/svgjs"><defs id="SvgjsDefs827193"></defs><g id="SvgjsG827194" transform="translate(328, 328) scale(34.4)" opacity="1"><defs id="SvgjsDefs192393"></defs><g id="SvgjsG192394" transform="scale(0.21645021645021648)" opacity="1"><g id="SvgjsG192395" class="6ZYtzwUz2" transform="translate(164.71428571428567, 0) scale(1)" light-content="false" fill="#333333"><path d="					M 58.731320110212444, 59.231320110212444					m 0, -59.231320110212444
					a 59.231320110212444, 59.231320110212444, 0, 1, 0, 1, 0
					Z
					m 1, 1
					a 58.231320110212444, 58.231320110212444, 0, 1, 1, -1, 0
					Z
				"></path></g><g id="SvgjsG192396" class="j4s7kADB38" transform="translate(168.28088363405158, 3.4626402204248734) scale(1)" light-content="false" fill="#333333"><path d="				M 54.50000000000001, 55.00000000000001
				m 0, -55.00000000000001
				a 55.00000000000001, 55.00000000000001, 0, 1, 0, 1, 0
				Z
			"></path></g><g id="SvgjsG192397" class="UeGSJ0OqhA" transform="translate(180.31252010753462, 19.271425251331447) scale(0.793864948924135)" light-content="true" fill="#fcfcfc"><path d="M106.274 98.849a.705.705 0 0 0 .62-.347v.043c0 .473-.229.914-.651.914-.193 0-.359-.078-.538-.234l-.144.19c.185.153.391.269.676.269.541 0 .91-.49.91-1.186v-.006c0-.438-.106-.682-.272-.848a.773.773 0 0 0-.575-.225c-.466 0-.788.328-.788.744v.006c0 .395.312.68.762.68zm-.509-.698c0-.272.197-.513.525-.513.329 0 .558.219.558.497v.007c0 .25-.21.494-.545.494-.319 0-.538-.201-.538-.479v-.006zm2.692 1.533c.562 0 .926-.52.926-1.132v-.007c0-.613-.357-1.125-.92-1.125-.563 0-.929.519-.929 1.132v.007c0 .612.357 1.125.923 1.125zm-.667-1.139c0-.481.257-.9.667-.9.406 0 .669.429.669.907v.007c0 .479-.253.9-.663.9s-.673-.429-.673-.907v-.007zm2.298.792c.125.181.319.344.619.344.392 0 .773-.312.773-.841v-.007c0-.532-.385-.838-.773-.838-.297 0-.487.165-.619.359v-.325h-.241v2.117h.241v-.809zm-.01-.504c0-.369.285-.622.585-.622.307 0 .569.244.569.625v.007c0 .391-.256.622-.569.622-.3 0-.585-.25-.585-.625v-.007zm1.875.813l.504-.666.501.666h.278l-.638-.826.613-.791h-.269l-.482.632-.476-.632h-.274l.606.795-.631.822z"></path><g fill-rule="evenodd" clip-rule="evenodd"><path d="M45 92.207c-.548-1.42-1.528-4.949-.543-9.196.002-.006.006-.013.007-.02-1.421-3.653-1.681-7.774-1.285-11.651.108-1.07.255-2.141.472-3.196.125-.614 1.143-3.014.705-3.589-1.98 1.324-3.621 3.176-4.096 3.729-1.299 1.512-2.498 3.127-3.4 4.893-.797 1.556-1.322 3.229-1.485 4.959-.37 3.916.813 8.479 3.487 11.403 1.73 1.893 2.805 3.192 5.213 4.669.302.186 1.203.75 1.577.791.491.053.213-.8.112-1.014A27.013 27.013 0 0 1 45 92.207zM17.071 67.805c-.688 1.152-1.881 1.43-1.668 2.844.266 1.763 1.691 4.244 3.688 3.966 2.346-.327 2.652-.849 4.905-1.584 3.14-1.024 3.854-1.817 6.308-3.395-5.439-.167-9.818-2.913-12.268-4.794-.121 1.304-.407 2.027-.965 2.963zm-.188-3.457c.101-.807-2.016-2.732-2.335-3.411-.636-1.349-.97-1.487-1.366-2.927-.264-.958-1.205-.832-1.377.102-.108.588.068 1.229.162 1.809.285 1.765 1.086 3.262 2.139 4.595.289.364.855.673 1.314.745.765.117 1.393-.337 1.463-.913z"></path><path d="M90.223 37.545c-.344-2.138-1.267-4.762-2.35-6.642-1.617-2.812-2.915-4.366-4.868-5.938-3.937-3.167-8.099-5.271-15.461-5.375-.661-.009-1.503.069-1.984.108l-1.526.197c-.216.029-.412-.101-.437-.29-.024-.175.111-.341.304-.383 4.982-1.124 10.089-1.21 14.731.723.29.116.571.253.849.394.23.115.926-.088.513-.707-2.99-5.246-7.659-8.917-17.619-8.88-2.127.008-4.487.677-6.43 1.493-.524.219-1.003.51-1.503.767-.331.17-.943.594-1.201.168-.122-.202.125-.638.322-.744.021-.014.867-.521 1.795-1.036 6.119-3.399 12.414-3.383 17.922-.943.441.198.736-.173.508-.441C65.964.814 48.214 5.77 40.67 12.906c-2.31 2.184-6.12 7.106-5.436 10.468 1.862-1.16 5.814-3.517 11.082-3.032 3.758.346 5.49 2.112 6.793 3.875.22.297.142.407-.128.191-2.201-1.756-5.409-2.456-6.671-2.439-4.339.056-17.187 5.616-19.535 9.521-.73 1.212-.904 2.622-.595 3.994.117.517-.948 1.523-1.671 1.971-3.68 2.284-7.236 4.799-10.311 7.864-1.285 1.28-3.066 3.092-4.152 4.548-.995 1.334-.259 2.143.689 4.015.457.901 1.869.728 2.676.246.594-.354 1.053-.975 1.578-1.42a12.495 12.495 0 0 1 5.125-2.604c.604-.144 1.418-.214 1.553.577.097.573-.32.752-.81.797-.634.059-1.065.305-1.672.493-.22.069-.415.108-.624.204-.289.133-.299.206-.41.468-.209.497-.273 1.001-.444 1.504-.198.581-.669.999-1.167 1.331-.783.524-2.033.611-2.157 1.195-.171.803.906 3.123 1.442 3.911 1.361 1.997 3.414 3.73 5.533 4.835 2.854 1.487 6.814 3.406 10.1 2.784 2.275-.432 5.779-1.057 6.895-3.397 1.066-2.234-.557-5.309-4.02-4.93 2.854-.84 4.98-1.159 6.059-1.367 3.275-.633 6.348-2.398 9.206-4.041 1.366-.783 2.583-1.812 3.659-3 1.758-1.946 3.346-4.46 4.444-7.112a23.45 23.45 0 0 1-.342 2.655 25.944 25.944 0 0 1-2.892 7.89c-1.057 1.874-2.583 3.405-3.956 5.042-1.415 1.688-2.665 3.539-3.646 5.514-1.01 2.026-1.666 4.203-1.853 6.444-.423 5.077 1.175 10.968 4.681 14.718 2.269 2.426 4.134 4.223 7.275 6.102.393.234 1.111.823 1.598.871.637.062.264-1.039.13-1.314a35.02 35.02 0 0 1-1.015-2.289c-1.219-3.063-1.418-6.406-1.327-9.668.089-3.217.28-6.5.87-9.668.193-1.042.727-5.074 1.484-5.893-.697 3.729-1.052 7.601-.149 11.332.443 1.834 1.614 3.664 2.944 5.009a12.17 12.17 0 0 0 1.893 1.536c1.348.868 2.574 1.549 4.057 2.17.393.164 1.029.492 1.477.44.71-.083.377-.785.001-1.194-.396-.432-.913-1.999-1.05-2.561-1.27-5.211.678-7.186 1.223-7.985.01-.017-.197-.317-.271-.463-1.535-2.972-1.993-7.687-1.205-11.235.646-2.906 2.691-5.105 4.008-7.711 1.132-2.238 1.891-4.815 1.734-7.318-.082-1.355-.452-2.658-.817-3.962-.087-.358-.218-.634-.325-.952-.111-.311-.344-.627-.51-.942l-.016-.029a.377.377 0 0 1 .168-.514c.898-.456 2.055 3.42 2.188 3.938 1.203 4.615.371 8.648-1.759 12.9-.817 1.632-1.984 4.17-2.25 6.783-.474 4.651 1.816 9.627 6.27 12.965.279.211.74-.01.693-.313-1.778-11.329 9.339-16.887 12.135-28.189.893-3.608 1.66-7.283 1.076-10.92zm-51.898-1.853c-.373.157-.767.262-1.143.422-1.076.463-2.146.978-3.092 1.679-.979.725-1.82 1.665-2.324 2.783-.095.208-.187.762-.491.752-.165-.004-.249-.254-.28-.386-.225-1.019-.83-1.857-1.84-2.179a5.034 5.034 0 0 0-.881-.207c-.128-.017-.264-.012-.389-.043-.057-.013-.127-.043-.127-.114 0-.087.104-.108.17-.118.191-.03.393-.017.586-.014.551.005 1.108.089 1.594.364.336.189.635.486 1.021.57.492.106.893-.265 1.238-.555a2.78 2.78 0 0 0 .555-.673c.191-.338-.136-.729-.311-.979-.213-.306-.295-.669-.389-1.024a4.421 4.421 0 0 1 .01-2.192c.092-.352.213-.692.406-1.001.764-1.213 1.484-1.726 3.354-2.386a.515.515 0 1 1 .343.971c-1.747.617-2.194.929-2.781 1.861-.171.271-.282.455-.339.846-.021.149.123.493.57.508.307.011.279.004.538.01.954.019 1.04.051 1.981.145.521.052.957.093 1.475.159.31.04.694.035.861.211.257.265-.125.508-.315.59z"></path></g></g><g id="SvgjsG192398" class="text" transform="translate(230.76, 155.77465207510699) scale(1)" light-content="false" fill="#242424"><path d="M-230.34 -0.32L-230.76 -0.32L-230.76 0L-217.51 0L-215.65 -5.17L-215.97 -5.17C-216.53 -3.79 -217.22 -2.75 -218.05 -2.04C-218.88 -1.34 -220.08 -0.99 -221.66 -0.99L-226.22 -0.99L-226.22 -20.02C-226.22 -20.38 -226.13 -20.73 -225.94 -21.04C-225.53 -21.7 -224.95 -22.03 -224.18 -22.03L-223.77 -22.03L-223.77 -22.35L-230.76 -22.35L-230.76 -22.03L-230.34 -22.03C-229.79 -22.03 -229.32 -21.84 -228.92 -21.44C-228.53 -21.05 -228.32 -20.58 -228.3 -20.02L-228.3 -2.33C-228.32 -1.78 -228.53 -1.3 -228.92 -0.91C-229.32 -0.52 -229.79 -0.32 -230.34 -0.32Z M-206.49 -0.32L-206.9 -0.32L-206.9 0L-193.65 0L-191.8 -5.17L-192.12 -5.17C-192.67 -3.79 -193.36 -2.75 -194.19 -2.04C-195.02 -1.34 -196.23 -0.99 -197.8 -0.99L-202.37 -0.99L-202.37 -10.54L-196.94 -10.54C-196.51 -10.52 -196.16 -10.36 -195.87 -10.06C-195.58 -9.76 -195.44 -9.4 -195.44 -8.97L-195.44 -8.49L-195.12 -8.49L-195.12 -13.54L-195.44 -13.54L-195.44 -13.09C-195.44 -12.65 -195.59 -12.27 -195.89 -11.98C-196.18 -11.68 -196.55 -11.52 -196.97 -11.5L-202.37 -11.5L-202.37 -21.36L-195.85 -21.36C-195.36 -21.34 -194.94 -21.15 -194.59 -20.79C-194.24 -20.43 -194.07 -19.99 -194.07 -19.48L-194.07 -18.91L-193.75 -18.91L-193.75 -22.93C-194.07 -22.8 -194.61 -22.67 -195.39 -22.55C-196.17 -22.42 -196.89 -22.35 -197.55 -22.35L-206.9 -22.35L-206.87 -22.03L-206.49 -22.03C-205.96 -22.03 -205.5 -21.86 -205.12 -21.51C-204.73 -21.16 -204.51 -20.73 -204.44 -20.21L-204.44 -2.33C-204.47 -1.78 -204.67 -1.3 -205.07 -0.91C-205.46 -0.52 -205.93 -0.32 -206.49 -0.32Z M-163.3 -19.27C-165.42 -21.33 -168.18 -22.35 -171.58 -22.35L-182.41 -22.35L-182.38 -22.03L-181.99 -22.03C-181.46 -22.03 -180.99 -21.86 -180.57 -21.51C-180.16 -21.16 -179.95 -20.73 -179.95 -20.21L-179.95 -2.33C-179.97 -1.78 -180.18 -1.3 -180.57 -0.91C-180.97 -0.52 -181.44 -0.32 -181.99 -0.32L-182.41 -0.32L-182.41 0L-171.58 0C-168.18 0 -165.42 -1.03 -163.3 -3.08C-161.18 -5.14 -160.12 -7.83 -160.12 -11.18C-160.12 -14.52 -161.18 -17.22 -163.3 -19.27ZM-177.88 -21.4L-171.58 -21.4C-168.88 -21.4 -166.69 -20.46 -165.02 -18.59C-163.35 -16.71 -162.51 -14.24 -162.51 -11.18C-162.51 -9.15 -162.89 -7.37 -163.65 -5.83C-164.4 -4.28 -165.47 -3.09 -166.84 -2.24C-168.21 -1.38 -169.8 -0.96 -171.58 -0.96L-177.88 -0.96Z M-130.45 -0.32C-131.01 -0.32 -131.54 -0.49 -132.05 -0.83C-132.56 -1.17 -132.96 -1.67 -133.26 -2.33L-141.82 -22.8L-142.11 -22.8C-142.11 -22.33 -142.5 -21.24 -143.29 -19.51L-150.51 -2.33C-150.83 -1.67 -151.24 -1.17 -151.75 -0.83C-152.26 -0.49 -152.79 -0.32 -153.32 -0.32L-153.6 -0.32L-153.6 0L-147.19 0L-147.19 -0.32L-147.47 -0.32C-147.92 -0.32 -148.26 -0.46 -148.48 -0.75C-148.7 -1.04 -148.81 -1.3 -148.81 -1.55C-148.81 -1.79 -148.77 -2.04 -148.69 -2.3L-146.55 -7.76L-137.93 -7.76L-135.88 -2.33C-135.8 -2.08 -135.75 -1.82 -135.75 -1.56C-135.75 -1.31 -135.87 -1.04 -136.09 -0.75C-136.31 -0.46 -136.65 -0.32 -137.09 -0.32L-137.38 -0.32L-137.38 0L-130.2 0L-130.2 -0.32ZM-146.16 -8.72L-142.14 -18.97L-138.31 -8.72Z M-115.67 -21.36C-114.9 -21.36 -114.26 -21.35 -113.75 -21.33C-112.56 -21.27 -111.61 -20.8 -110.91 -19.93C-110.21 -19.05 -109.83 -17.9 -109.79 -16.48L-109.79 -15.76C-109.79 -15.39 -109.85 -14.99 -109.98 -14.56C-110.66 -12.41 -112.32 -11.3 -114.96 -11.24C-115.37 -11.22 -115.71 -11.21 -115.99 -11.21C-116.26 -11.21 -116.49 -11.22 -116.66 -11.24L-116.66 -10.92C-115.98 -10.92 -115.29 -10.56 -114.61 -9.84C-114.38 -9.58 -114.16 -9.32 -113.94 -9.05C-113.73 -8.79 -112.97 -7.72 -111.67 -5.84C-110.38 -3.97 -109.58 -2.87 -109.3 -2.54C-109.01 -2.21 -108.67 -1.87 -108.27 -1.52C-107.88 -1.17 -107.29 -0.82 -106.5 -0.49C-105.71 -0.16 -104.86 0 -103.95 0L-102.19 0L-102.19 -0.32C-102.89 -0.32 -103.55 -0.47 -104.17 -0.77C-104.45 -0.89 -104.72 -1.06 -105 -1.28C-105.28 -1.49 -105.53 -1.71 -105.77 -1.93C-106 -2.16 -106.4 -2.57 -106.95 -3.18C-107.5 -3.78 -108.69 -5.4 -110.53 -8.02C-110.87 -8.48 -111.25 -8.94 -111.69 -9.37C-112.13 -9.81 -112.51 -10.1 -112.82 -10.25C-111.31 -10.25 -110.03 -10.87 -108.98 -12.12C-107.92 -13.36 -107.4 -14.84 -107.4 -16.56C-107.4 -18.27 -107.95 -19.67 -109.06 -20.74C-110.16 -21.82 -111.69 -22.35 -113.62 -22.35L-122.25 -22.35L-122.25 -22.03L-121.83 -22.03C-121.28 -22.03 -120.8 -21.84 -120.41 -21.44C-120.02 -21.05 -119.81 -20.58 -119.79 -20.02L-119.79 -2.3C-119.81 -1.75 -120.02 -1.28 -120.41 -0.89C-120.8 -0.51 -121.28 -0.32 -121.83 -0.32L-122.25 -0.32L-122.25 0L-115.25 0L-115.28 -0.32L-115.67 -0.32C-116.24 -0.32 -116.73 -0.52 -117.12 -0.91C-117.51 -1.3 -117.71 -1.78 -117.71 -2.33L-117.71 -21.36Z M-94.85 -1.31C-94.27 -0.71 -93.46 -0.27 -92.4 0.02C-91.35 0.3 -90.35 0.45 -89.42 0.45C-87.61 0.45 -86.16 -0.1 -85.07 -1.2C-83.99 -2.29 -83.44 -3.69 -83.44 -5.4C-83.44 -7.1 -83.98 -8.44 -85.04 -9.42L-91.33 -15.23C-92.18 -16.02 -92.61 -16.96 -92.61 -18.04C-92.61 -19.13 -92.24 -20.03 -91.51 -20.76C-90.77 -21.48 -89.86 -21.84 -88.78 -21.84C-87.69 -21.84 -86.8 -21.55 -86.11 -20.95C-85.42 -20.35 -85.07 -19.55 -85.07 -18.55L-84.79 -18.55L-84.79 -22.48L-86.03 -22.48C-87.05 -22.69 -87.97 -22.8 -88.78 -22.8C-90.5 -22.8 -91.87 -22.26 -92.88 -21.19C-93.89 -20.11 -94.4 -18.82 -94.4 -17.31C-94.4 -15.8 -93.82 -14.51 -92.67 -13.44L-86.54 -7.76C-85.71 -6.99 -85.3 -6 -85.3 -4.77C-85.3 -3.55 -85.73 -2.53 -86.59 -1.72C-87.45 -0.92 -88.55 -0.51 -89.9 -0.51C-91.19 -0.51 -92.24 -0.94 -93.03 -1.8C-93.81 -2.67 -94.21 -3.75 -94.21 -5.05C-94.21 -5.28 -94.2 -5.51 -94.17 -5.75L-94.46 -5.75C-94.78 -4.79 -94.94 -3.89 -94.94 -3.03C-94.94 -2.18 -94.91 -1.61 -94.85 -1.31Z M-66.74 -0.32C-67.3 -0.32 -67.78 -0.52 -68.18 -0.91C-68.58 -1.3 -68.79 -1.78 -68.79 -2.33L-68.79 -20.05C-68.77 -20.61 -68.56 -21.08 -68.16 -21.46C-67.77 -21.84 -67.3 -22.03 -66.74 -22.03L-66.33 -22.03L-66.33 -22.35L-73.32 -22.35L-73.32 -22.03L-72.91 -22.03C-72.35 -22.03 -71.88 -21.84 -71.49 -21.46C-71.09 -21.08 -70.88 -20.61 -70.86 -20.05L-70.86 -2.33C-70.88 -1.78 -71.09 -1.3 -71.49 -0.91C-71.88 -0.52 -72.35 -0.32 -72.91 -0.32L-73.32 -0.32L-73.32 0L-66.33 0L-66.33 -0.32ZM-53.91 0L-53.91 -0.32C-55.08 -0.34 -56.09 -0.78 -56.94 -1.63L-65.66 -11.88L-58.15 -20.57C-57.26 -21.57 -56.11 -22.07 -54.7 -22.07L-54.58 -22.07L-54.58 -22.35L-61.31 -22.35L-61.31 -22.07L-60.99 -22.07C-60.55 -22.07 -60.24 -21.91 -60.07 -21.59C-60 -21.46 -59.97 -21.31 -59.97 -21.14C-59.97 -20.97 -60.06 -20.78 -60.23 -20.57L-67.77 -11.11L-60.07 -1.82C-59.05 -0.61 -57.45 0 -55.28 0Z M-25.04 -0.32C-25.59 -0.32 -26.12 -0.49 -26.63 -0.83C-27.14 -1.17 -27.55 -1.67 -27.85 -2.33L-36.41 -22.8L-36.69 -22.8C-36.69 -22.33 -37.09 -21.24 -37.87 -19.51L-45.09 -2.33C-45.41 -1.67 -45.83 -1.17 -46.34 -0.83C-46.85 -0.49 -47.37 -0.32 -47.9 -0.32L-48.19 -0.32L-48.19 0L-41.77 0L-41.77 -0.32L-42.06 -0.32C-42.5 -0.32 -42.84 -0.46 -43.06 -0.75C-43.29 -1.04 -43.4 -1.3 -43.4 -1.55C-43.4 -1.79 -43.36 -2.04 -43.27 -2.3L-41.13 -7.76L-32.51 -7.76L-30.47 -2.33C-30.38 -2.08 -30.34 -1.82 -30.34 -1.56C-30.34 -1.31 -30.45 -1.04 -30.67 -0.75C-30.9 -0.46 -31.23 -0.32 -31.68 -0.32L-31.97 -0.32L-31.97 0L-24.78 0L-24.78 -0.32ZM-40.75 -8.72L-36.72 -18.97L-32.89 -8.72Z M-1.92 -16.19C-1.92 -18.11 -2.5 -19.61 -3.67 -20.71C-4.84 -21.81 -6.45 -22.35 -8.49 -22.35L-16.83 -22.35L-16.8 -22.03L-16.41 -22.03C-15.88 -22.03 -15.42 -21.86 -15.04 -21.51C-14.66 -21.16 -14.43 -20.71 -14.37 -20.18L-14.37 -2.33C-14.39 -1.78 -14.6 -1.3 -14.99 -0.91C-15.39 -0.52 -15.86 -0.32 -16.41 -0.32L-16.83 -0.32L-16.83 0L-9.84 0L-9.84 -0.32L-10.25 -0.32C-10.8 -0.32 -11.28 -0.52 -11.67 -0.91C-12.07 -1.3 -12.27 -1.78 -12.29 -2.33L-12.29 -21.4L-8.62 -21.4C-7.28 -21.4 -6.24 -20.95 -5.49 -20.07C-4.75 -19.19 -4.35 -18 -4.31 -16.51L-4.31 -15.81C-4.31 -15.42 -4.38 -15.02 -4.5 -14.59C-4.93 -13.23 -5.73 -12.25 -6.9 -11.66C-8.22 -10.97 -9.65 -10.8 -11.21 -11.15L-11.21 -10.83C-10.25 -10.34 -9.11 -10.09 -7.79 -10.09C-7.34 -10.09 -6.81 -10.2 -6.2 -10.41C-4.43 -11.01 -3.19 -12.06 -2.49 -13.57C-2.11 -14.38 -1.92 -15.25 -1.92 -16.19Z M8.02 -1.31C8.59 -0.71 9.4 -0.27 10.46 0.02C11.51 0.3 12.51 0.45 13.44 0.45C15.25 0.45 16.7 -0.1 17.79 -1.2C18.87 -2.29 19.42 -3.69 19.42 -5.4C19.42 -7.1 18.88 -8.44 17.82 -9.42L11.53 -15.23C10.68 -16.02 10.25 -16.96 10.25 -18.04C10.25 -19.13 10.62 -20.03 11.35 -20.76C12.09 -21.48 13 -21.84 14.08 -21.84C15.17 -21.84 16.06 -21.55 16.75 -20.95C17.44 -20.35 17.79 -19.55 17.79 -18.55L18.07 -18.55L18.07 -22.48L16.83 -22.48C15.81 -22.69 14.89 -22.8 14.08 -22.8C12.36 -22.8 10.99 -22.26 9.98 -21.19C8.97 -20.11 8.46 -18.82 8.46 -17.31C8.46 -15.8 9.04 -14.51 10.19 -13.44L16.32 -7.76C17.15 -6.99 17.56 -6 17.56 -4.77C17.56 -3.55 17.13 -2.53 16.27 -1.72C15.41 -0.92 14.31 -0.51 12.97 -0.51C11.67 -0.51 10.62 -0.94 9.84 -1.8C9.05 -2.67 8.65 -3.75 8.65 -5.05C8.65 -5.28 8.66 -5.51 8.69 -5.75L8.4 -5.75C8.08 -4.79 7.92 -3.89 7.92 -3.03C7.92 -2.18 7.95 -1.61 8.02 -1.31Z M32.72 -2.78C34.84 -0.65 37.58 0.43 40.94 0.45C44.99 0.45 47.98 -1.14 49.91 -4.31L50.3 -9.32L50.04 -9.32C49.68 -6.15 48.64 -3.86 46.91 -2.46C45.32 -1.16 43.32 -0.51 40.94 -0.51C38.24 -0.57 36.06 -1.58 34.41 -3.53C32.76 -5.48 31.93 -8.05 31.93 -11.24C31.93 -14.43 32.77 -17 34.44 -18.94C36.11 -20.87 38.34 -21.84 41.13 -21.84C43.09 -21.84 44.78 -21.35 46.21 -20.36C47.64 -19.37 48.58 -17.96 49.05 -16.13L49.34 -16.13L48.7 -20.63C46.51 -22.08 43.98 -22.8 41.13 -22.8C37.64 -22.8 34.84 -21.74 32.72 -19.61C30.6 -17.48 29.54 -14.67 29.54 -11.19C29.54 -7.71 30.6 -4.91 32.72 -2.78Z M71.98 -22.8C68.57 -22.8 65.81 -21.73 63.69 -19.59C61.58 -17.45 60.52 -14.65 60.52 -11.18C60.52 -7.71 61.58 -4.9 63.69 -2.76C65.81 -0.62 68.57 0.45 71.98 0.45C75.39 0.45 78.15 -0.62 80.28 -2.76C82.41 -4.9 83.48 -7.71 83.48 -11.18C83.48 -14.65 82.41 -17.45 80.28 -19.59C78.15 -21.73 75.39 -22.8 71.98 -22.8ZM72 -0.51C69.28 -0.51 67.1 -1.49 65.45 -3.45C63.8 -5.41 62.97 -7.98 62.97 -11.18C62.97 -14.37 63.8 -16.95 65.45 -18.91C67.1 -20.86 69.28 -21.84 71.98 -21.84C73.77 -21.84 75.35 -21.4 76.72 -20.52C78.1 -19.63 79.15 -18.38 79.9 -16.77C80.65 -15.15 81.02 -13.28 81.02 -11.18C81.02 -7.98 80.19 -5.41 78.54 -3.45C76.89 -1.49 74.71 -0.51 72 -0.51Z M113.14 -0.32C112.59 -0.32 112.06 -0.49 111.55 -0.83C111.04 -1.17 110.63 -1.67 110.33 -2.33L101.78 -22.8L101.49 -22.8C101.49 -22.33 101.09 -21.24 100.31 -19.51L93.09 -2.33C92.77 -1.67 92.35 -1.17 91.84 -0.83C91.33 -0.49 90.81 -0.32 90.28 -0.32L89.99 -0.32L89.99 0L96.41 0L96.41 -0.32L96.12 -0.32C95.68 -0.32 95.34 -0.46 95.12 -0.75C94.89 -1.04 94.78 -1.3 94.78 -1.55C94.78 -1.79 94.82 -2.04 94.91 -2.3L97.05 -7.76L105.67 -7.76L107.72 -2.33C107.8 -2.08 107.84 -1.82 107.84 -1.56C107.84 -1.31 107.73 -1.04 107.51 -0.75C107.28 -0.46 106.95 -0.32 106.5 -0.32L106.21 -0.32L106.21 0L113.4 0L113.4 -0.32ZM97.43 -8.72L101.46 -18.97L105.29 -8.72Z M123.41 -2.78C125.53 -0.65 128.27 0.43 131.63 0.45C135.68 0.45 138.67 -1.14 140.61 -4.31L140.99 -9.32L140.74 -9.32C140.37 -6.15 139.33 -3.86 137.61 -2.46C136.01 -1.16 134.02 -0.51 131.63 -0.51C128.93 -0.57 126.75 -1.58 125.1 -3.53C123.45 -5.48 122.63 -8.05 122.63 -11.24C122.63 -14.43 123.46 -17 125.14 -18.94C126.81 -20.87 129.04 -21.84 131.83 -21.84C133.78 -21.84 135.48 -21.35 136.9 -20.36C138.33 -19.37 139.28 -17.96 139.75 -16.13L140.03 -16.13L139.39 -20.63C137.2 -22.08 134.68 -22.8 131.83 -22.8C128.33 -22.8 125.53 -21.74 123.41 -19.61C121.29 -17.48 120.23 -14.67 120.23 -11.19C120.23 -7.71 121.29 -4.91 123.41 -2.78Z M166.44 -0.32L166.03 -0.32L166.03 0L173.02 0L173.02 -0.32L172.61 -0.32C172.05 -0.32 171.58 -0.52 171.18 -0.91C170.79 -1.3 170.58 -1.78 170.56 -2.33L170.56 -20.02C170.58 -20.58 170.79 -21.05 171.18 -21.44C171.58 -21.84 172.05 -22.03 172.61 -22.03L173.02 -22.03L173.02 -22.35L166.03 -22.35L166.03 -22.03L166.44 -22.03C166.8 -22.03 167.15 -21.95 167.46 -21.78C168.12 -21.4 168.47 -20.82 168.49 -20.05L168.49 -11.53L155.43 -11.53L155.43 -20.05C155.45 -20.61 155.65 -21.08 156.05 -21.46C156.44 -21.84 156.92 -22.03 157.47 -22.03L157.88 -22.03L157.88 -22.35L150.89 -22.35L150.89 -22.03L151.31 -22.03C151.86 -22.03 152.33 -21.84 152.73 -21.46C153.12 -21.08 153.33 -20.61 153.35 -20.05L153.35 -2.33C153.33 -1.78 153.12 -1.3 152.73 -0.91C152.33 -0.52 151.86 -0.32 151.31 -0.32L150.89 -0.32L150.89 0L157.88 0L157.88 -0.32L157.47 -0.32C156.92 -0.32 156.44 -0.52 156.03 -0.91C155.63 -1.3 155.43 -1.78 155.43 -2.33L155.43 -10.57L168.49 -10.57L168.49 -2.3C168.47 -1.75 168.26 -1.28 167.86 -0.89C167.47 -0.51 167 -0.32 166.44 -0.32Z M183.66 -0.32L183.24 -0.32L183.24 0L196.49 0L198.35 -5.17L198.03 -5.17C197.47 -3.79 196.78 -2.75 195.95 -2.04C195.12 -1.34 193.92 -0.99 192.34 -0.99L187.77 -0.99L187.77 -10.54L193.2 -10.54C193.63 -10.52 193.99 -10.36 194.27 -10.06C194.56 -9.76 194.7 -9.4 194.7 -8.97L194.7 -8.49L195.02 -8.49L195.02 -13.54L194.7 -13.54L194.7 -13.09C194.7 -12.65 194.56 -12.27 194.26 -11.98C193.96 -11.68 193.6 -11.52 193.17 -11.5L187.77 -11.5L187.77 -21.36L194.29 -21.36C194.78 -21.34 195.2 -21.15 195.55 -20.79C195.9 -20.43 196.08 -19.99 196.08 -19.48L196.08 -18.91L196.4 -18.91L196.4 -22.93C196.08 -22.8 195.53 -22.67 194.75 -22.55C193.98 -22.42 193.26 -22.35 192.6 -22.35L183.24 -22.35L183.27 -22.03L183.66 -22.03C184.19 -22.03 184.65 -21.86 185.03 -21.51C185.41 -21.16 185.64 -20.73 185.7 -20.21L185.7 -2.33C185.68 -1.78 185.47 -1.3 185.08 -0.91C184.68 -0.52 184.21 -0.32 183.66 -0.32Z M230.66 -22.03L231.24 -22.03L231.24 -22.35L224.66 -22.35L224.66 -22.03L225.27 -22.03C225.8 -22.03 226.26 -21.85 226.64 -21.48C227.02 -21.1 227.22 -20.64 227.25 -20.09L227.25 -4.25L209.84 -22.83L209.52 -22.83L209.59 -22.32C209.74 -21.3 209.81 -20.14 209.81 -18.84L209.81 -2.27C209.81 -1.71 209.62 -1.25 209.23 -0.88C208.85 -0.51 208.39 -0.32 207.86 -0.32L207.25 -0.32L207.25 0L213.83 0L213.83 -0.32L213.23 -0.32C212.89 -0.32 212.57 -0.4 212.27 -0.57C211.63 -0.94 211.3 -1.49 211.28 -2.24L211.28 -18.14L228.68 0.45L228.97 0.45L228.91 -0.13C228.76 -1.23 228.68 -2.41 228.68 -3.64L228.68 -20.12C228.7 -20.65 228.91 -21.1 229.29 -21.48C229.67 -21.85 230.13 -22.03 230.66 -22.03Z"></path></g></g></g></svg>